<svg xmlns="http://www.w3.org/2000/svg" xmlns:xlink="http://www.w3.org/1999/xlink" width="1920" zoomAndPan="magnify" viewBox="0 0 1440 809.999993" height="1080" preserveAspectRatio="xMidYMid meet" version="1.0"><defs><g/><clipPath id="cfc17ffb6f"><path d="M 0.601562 0.878906 L 906.839844 0.878906 L 906.839844 792.640625 L 0.601562 792.640625 Z M 0.601562 0.878906 " clip-rule="nonzero"/></clipPath><clipPath id="f766c483e8"><path d="M 0.601562 0.878906 L 906.839844 0.878906 L 906.839844 792.640625 L 0.601562 792.640625 Z M 0.601562 0.878906 " clip-rule="nonzero"/></clipPath><clipPath id="efbe27663c"><path d="M 1 2 L 905 2 L 905 792.53125 L 1 792.53125 Z M 1 2 " clip-rule="nonzero"/></clipPath><clipPath id="459fe218e2"><path d="M 454.03125 2.789062 L 904.347656 790.839844 C 904.546875 791.1875 904.542969 791.621094 904.34375 791.96875 C 904.140625 792.316406 903.765625 792.53125 903.363281 792.53125 L 2.765625 792.53125 C 2.363281 792.53125 1.988281 792.316406 1.789062 791.96875 C 1.585938 791.621094 1.582031 791.1875 1.785156 790.839844 L 452.097656 2.789062 C 452.296875 2.441406 452.664062 2.226562 453.066406 2.226562 C 453.464844 2.226562 453.832031 2.441406 454.03125 2.789062 Z M 454.03125 2.789062 " clip-rule="nonzero"/></clipPath><clipPath id="8c2ba9e0e8"><path d="M 0.558594 0.078125 L 903.679688 0.078125 L 903.679688 790.53125 L 0.558594 790.53125 Z M 0.558594 0.078125 " clip-rule="nonzero"/></clipPath><clipPath id="be6bf53a85"><path d="M 453.03125 0.789062 L 903.347656 788.839844 C 903.546875 789.1875 903.542969 789.621094 903.34375 789.96875 C 903.140625 790.316406 902.765625 790.53125 902.363281 790.53125 L 1.765625 790.53125 C 1.363281 790.53125 0.988281 790.316406 0.789062 789.96875 C 0.585938 789.621094 0.582031 789.1875 0.785156 788.839844 L 451.097656 0.789062 C 451.296875 0.441406 451.664062 0.226562 452.066406 0.226562 C 452.464844 0.226562 452.832031 0.441406 453.03125 0.789062 Z M 453.03125 0.789062 " clip-rule="nonzero"/></clipPath><clipPath id="4a008157ed"><rect x="0" width="904" y="0" height="791"/></clipPath><clipPath id="2c822b0862"><rect x="0" width="907" y="0" height="793"/></clipPath><clipPath id="25fe2ca76b"><path d="M 1 2 L 751 2 L 751 657.859375 L 1 657.859375 Z M 1 2 " clip-rule="nonzero"/></clipPath><clipPath id="fe721b0d94"><path d="M 377.03125 2.6875 L 750.449219 656.167969 C 750.648438 656.519531 750.648438 656.949219 750.445312 657.296875 C 750.242188 657.648438 749.871094 657.863281 749.46875 657.863281 L 2.664062 657.863281 C 2.257812 657.863281 1.886719 657.648438 1.683594 657.296875 C 1.480469 656.949219 1.480469 656.519531 1.679688 656.167969 L 375.097656 2.6875 C 375.296875 2.339844 375.664062 2.128906 376.066406 2.128906 C 376.464844 2.128906 376.832031 2.339844 377.03125 2.6875 Z M 377.03125 2.6875 " clip-rule="nonzero"/></clipPath><clipPath id="34950b99cd"><path d="M 0.359375 0.078125 L 749.878906 0.078125 L 749.878906 655.859375 L 0.359375 655.859375 Z M 0.359375 0.078125 " clip-rule="nonzero"/></clipPath><clipPath id="d495d8a0a8"><path d="M 376.03125 0.6875 L 749.449219 654.167969 C 749.648438 654.519531 749.648438 654.949219 749.445312 655.296875 C 749.242188 655.648438 748.871094 655.863281 748.46875 655.863281 L 1.664062 655.863281 C 1.257812 655.863281 0.886719 655.648438 0.683594 655.296875 C 0.480469 654.949219 0.480469 654.519531 0.679688 654.167969 L 374.097656 0.6875 C 374.296875 0.339844 374.664062 0.128906 375.066406 0.128906 C 375.464844 0.128906 375.832031 0.339844 376.03125 0.6875 Z M 376.03125 0.6875 " clip-rule="nonzero"/></clipPath><clipPath id="41d790f6f7"><rect x="0" width="750" y="0" height="656"/></clipPath><clipPath id="a33c0da24c"><rect x="0" width="753" y="0" height="658"/></clipPath><clipPath id="5d5ac349d5"><path d="M 1 1 L 463 1 L 463 404.722656 L 1 404.722656 Z M 1 1 " clip-rule="nonzero"/></clipPath><clipPath id="504c7153a2"><path d="M 233.03125 1.980469 L 462.203125 403.027344 C 462.402344 403.378906 462.402344 403.808594 462.199219 404.160156 C 461.996094 404.507812 461.625 404.722656 461.222656 404.722656 L 2.90625 404.722656 C 2.503906 404.722656 2.132812 404.507812 1.929688 404.160156 C 1.726562 403.808594 1.726562 403.378906 1.925781 403.027344 L 231.097656 1.980469 C 231.296875 1.632812 231.664062 1.417969 232.066406 1.417969 C 232.464844 1.417969 232.832031 1.632812 233.03125 1.980469 Z M 233.03125 1.980469 " clip-rule="nonzero"/></clipPath><clipPath id="38af08724f"><path d="M 0.601562 0.359375 L 461.640625 0.359375 L 461.640625 403.722656 L 0.601562 403.722656 Z M 0.601562 0.359375 " clip-rule="nonzero"/></clipPath><clipPath id="f6b489974a"><path d="M 232.03125 0.980469 L 461.203125 402.027344 C 461.402344 402.378906 461.402344 402.808594 461.199219 403.160156 C 460.996094 403.507812 460.625 403.722656 460.222656 403.722656 L 1.90625 403.722656 C 1.503906 403.722656 1.132812 403.507812 0.929688 403.160156 C 0.726562 402.808594 0.726562 402.378906 0.925781 402.027344 L 230.097656 0.980469 C 230.296875 0.632812 230.664062 0.417969 231.066406 0.417969 C 231.464844 0.417969 231.832031 0.632812 232.03125 0.980469 Z M 232.03125 0.980469 " clip-rule="nonzero"/></clipPath><clipPath id="1d3b10ad09"><rect x="0" width="462" y="0" height="404"/></clipPath><clipPath id="a5c15219eb"><rect x="0" width="465" y="0" height="405"/></clipPath><clipPath id="233a090386"><path d="M 1.296875 1.542969 L 213 1.542969 L 213 187.183594 L 1.296875 187.183594 Z M 1.296875 1.542969 " clip-rule="nonzero"/></clipPath><clipPath id="3e7b3b8b37"><path d="M 108.03125 2.507812 L 212.59375 185.492188 C 212.796875 185.84375 212.792969 186.273438 212.589844 186.621094 C 212.390625 186.972656 212.015625 187.183594 211.613281 187.183594 L 2.515625 187.183594 C 2.113281 187.183594 1.742188 186.972656 1.539062 186.621094 C 1.335938 186.273438 1.335938 185.84375 1.535156 185.492188 L 106.097656 2.507812 C 106.296875 2.160156 106.664062 1.945312 107.066406 1.945312 C 107.464844 1.945312 107.832031 2.160156 108.03125 2.507812 Z M 108.03125 2.507812 " clip-rule="nonzero"/></clipPath><clipPath id="3457eef4bd"><path d="M 0.296875 0.839844 L 211.839844 0.839844 L 211.839844 186.183594 L 0.296875 186.183594 Z M 0.296875 0.839844 " clip-rule="nonzero"/></clipPath><clipPath id="fc7403c2be"><path d="M 107.03125 1.507812 L 211.59375 184.492188 C 211.796875 184.84375 211.792969 185.273438 211.589844 185.621094 C 211.390625 185.972656 211.015625 186.183594 210.613281 186.183594 L 1.515625 186.183594 C 1.113281 186.183594 0.742188 185.972656 0.539062 185.621094 C 0.335938 185.273438 0.335938 184.84375 0.535156 184.492188 L 105.097656 1.507812 C 105.296875 1.160156 105.664062 0.945312 106.066406 0.945312 C 106.464844 0.945312 106.832031 1.160156 107.03125 1.507812 Z M 107.03125 1.507812 " clip-rule="nonzero"/></clipPath><clipPath id="0375ed41bd"><rect x="0" width="212" y="0" height="187"/></clipPath><clipPath id="a20bdfac89"><rect x="0" width="215" y="0" height="188"/></clipPath><clipPath id="6a21b76d87"><rect x="0" width="452" y="0" height="457"/></clipPath><clipPath id="b1942043d5"><rect x="0" width="907" y="0" height="793"/></clipPath><clipPath id="05d4a3ab59"><rect x="0" width="907" y="0" height="793"/></clipPath></defs><g transform="matrix(1, 0, 0, 1, 267, 8)"><g clip-path="url(#05d4a3ab59)"><g clip-path="url(#cfc17ffb6f)"><g transform="matrix(1, 0, 0, 1, 0, 0.00000000000003908)"><g clip-path="url(#b1942043d5)"><g clip-path="url(#f766c483e8)"><g transform="matrix(1, 0, 0, 1, 0, 0.00000000000003908)"><g clip-path="url(#2c822b0862)"><g clip-path="url(#efbe27663c)"><g clip-path="url(#459fe218e2)"><g transform="matrix(1, 0, 0, 1, 1, 2)"><g clip-path="url(#4a008157ed)"><g clip-path="url(#8c2ba9e0e8)"><g clip-path="url(#be6bf53a85)"><path fill="#ffde59" d="M -0.183594 -0.902344 L 905.636719 -0.902344 L 905.636719 790.53125 L -0.183594 790.53125 Z M -0.183594 -0.902344 " fill-opacity="1" fill-rule="nonzero"/></g></g></g></g></g></g></g></g></g><g transform="matrix(1, 0, 0, 1, 77, 84)"><g clip-path="url(#a33c0da24c)"><g clip-path="url(#25fe2ca76b)"><g clip-path="url(#fe721b0d94)"><g transform="matrix(1, 0, 0, 1, 1, 2)"><g clip-path="url(#41d790f6f7)"><g clip-path="url(#34950b99cd)"><g clip-path="url(#d495d8a0a8)"><path fill="#794b14" d="M -0.285156 -1.003906 L 751.515625 -1.003906 L 751.515625 655.863281 L -0.285156 655.863281 Z M -0.285156 -1.003906 " fill-opacity="1" fill-rule="nonzero"/></g></g></g></g></g></g></g></g><g transform="matrix(1, 0, 0, 1, 221, 240)"><g clip-path="url(#a5c15219eb)"><g clip-path="url(#5d5ac349d5)"><g clip-path="url(#504c7153a2)"><g transform="matrix(1, 0, 0, 1, 1, 1)"><g clip-path="url(#1d3b10ad09)"><g clip-path="url(#38af08724f)"><g clip-path="url(#f6b489974a)"><path fill="#d60386" d="M -0.0429688 -0.714844 L 462.847656 -0.714844 L 462.847656 403.722656 L -0.0429688 403.722656 Z M -0.0429688 -0.714844 " fill-opacity="1" fill-rule="nonzero"/></g></g></g></g></g></g></g></g><g transform="matrix(1, 0, 0, 1, 346, 396)"><g clip-path="url(#a20bdfac89)"><g clip-path="url(#233a090386)"><g clip-path="url(#3e7b3b8b37)"><g transform="matrix(1, 0, 0, 1, 1, 1)"><g clip-path="url(#0375ed41bd)"><g clip-path="url(#3457eef4bd)"><g clip-path="url(#fc7403c2be)"><path fill="#d60386" d="M -0.433594 -0.1875 L 212.875 -0.1875 L 212.875 186.183594 L -0.433594 186.183594 Z M -0.433594 -0.1875 " fill-opacity="1" fill-rule="nonzero"/></g></g></g></g></g></g></g></g><g transform="matrix(1, 0, 0, 1, 227, 214)"><g clip-path="url(#6a21b76d87)"><g fill="#80e8b0" fill-opacity="0.7608"><g transform="translate(26.154712, 336.98407)"><g><path d="M 134.515625 -97.96875 C 133.617188 -92.800781 130.914062 -88.425781 126.40625 -84.84375 L 82.453125 -49.609375 C 79.890625 -47.390625 76.835938 -45.863281 73.296875 -45.03125 C 69.472656 -43.988281 65.566406 -43.816406 61.578125 -44.515625 C 57.335938 -45.253906 53.832031 -46.71875 51.0625 -48.90625 C 48.019531 -50.882812 45.644531 -53.238281 43.9375 -55.96875 C 42.226562 -58.6875 41.148438 -61.539062 40.703125 -64.53125 C 40.015625 -67.5625 39.894531 -70.367188 40.34375 -72.953125 C 41.375 -78.828125 44.257812 -83.535156 49 -87.078125 L 74.40625 -107.734375 C 74.632812 -107.691406 74.8125 -108.023438 74.9375 -108.734375 C 75.019531 -109.203125 74.96875 -109.578125 74.78125 -109.859375 L 57.796875 -137.546875 C 54.535156 -142.460938 53.414062 -147.863281 54.4375 -153.75 C 54.882812 -156.34375 55.945312 -158.945312 57.625 -161.5625 C 59.050781 -164.21875 61.03125 -166.539062 63.5625 -168.53125 C 66.09375 -170.5 69.144531 -172.023438 72.71875 -173.109375 C 76.03125 -173.984375 79.804688 -174.050781 84.046875 -173.3125 C 88.035156 -172.613281 91.671875 -171.253906 94.953125 -169.234375 C 97.960938 -167.003906 100.296875 -164.414062 101.953125 -161.46875 L 131.390625 -113.421875 C 134.378906 -108.304688 135.421875 -103.15625 134.515625 -97.96875 Z M 134.515625 -97.96875 "/></g></g></g><g fill="#80e8b0" fill-opacity="0.7608"><g transform="translate(166.2366, 361.412061)"><g><path d="M 219.59375 14.65625 C 219.1875 17.007812 218.28125 19.394531 216.875 21.8125 C 215.21875 24.4375 213.257812 26.644531 211 28.4375 C 208.46875 30.414062 205.550781 31.84375 202.25 32.71875 C 198.945312 33.59375 195.296875 33.679688 191.296875 32.984375 L 50.875 8.5 C 42.875 7.101562 37.328125 3.472656 34.234375 -2.390625 C 31.085938 -8.035156 29.945312 -13.328125 30.8125 -18.265625 C 31.21875 -20.609375 32.238281 -22.972656 33.875 -25.359375 C 35.257812 -27.785156 37.21875 -29.992188 39.75 -31.984375 C 42 -33.753906 44.773438 -35.082031 48.078125 -35.96875 C 51.148438 -36.882812 54.6875 -36.992188 58.6875 -36.296875 L 199.109375 -11.8125 C 203.109375 -11.113281 206.515625 -9.796875 209.328125 -7.859375 C 212.140625 -5.898438 214.414062 -3.6875 216.15625 -1.21875 C 217.644531 1.46875 218.75 4.207031 219.46875 7 C 219.957031 9.757812 220 12.3125 219.59375 14.65625 Z M 219.59375 14.65625 "/></g></g></g><g fill="#8093e8" fill-opacity="1"><g transform="translate(13.280086, 318.670771)"><g><path d="M 134.515625 -97.96875 C 133.617188 -92.800781 130.914062 -88.425781 126.40625 -84.84375 L 82.453125 -49.609375 C 79.890625 -47.390625 76.835938 -45.863281 73.296875 -45.03125 C 69.472656 -43.988281 65.566406 -43.816406 61.578125 -44.515625 C 57.335938 -45.253906 53.832031 -46.71875 51.0625 -48.90625 C 48.019531 -50.882812 45.644531 -53.238281 43.9375 -55.96875 C 42.226562 -58.6875 41.148438 -61.539062 40.703125 -64.53125 C 40.015625 -67.5625 39.894531 -70.367188 40.34375 -72.953125 C 41.375 -78.828125 44.257812 -83.535156 49 -87.078125 L 74.40625 -107.734375 C 74.632812 -107.691406 74.8125 -108.023438 74.9375 -108.734375 C 75.019531 -109.203125 74.96875 -109.578125 74.78125 -109.859375 L 57.796875 -137.546875 C 54.535156 -142.460938 53.414062 -147.863281 54.4375 -153.75 C 54.882812 -156.34375 55.945312 -158.945312 57.625 -161.5625 C 59.050781 -164.21875 61.03125 -166.539062 63.5625 -168.53125 C 66.09375 -170.5 69.144531 -172.023438 72.71875 -173.109375 C 76.03125 -173.984375 79.804688 -174.050781 84.046875 -173.3125 C 88.035156 -172.613281 91.671875 -171.253906 94.953125 -169.234375 C 97.960938 -167.003906 100.296875 -164.414062 101.953125 -161.46875 L 131.390625 -113.421875 C 134.378906 -108.304688 135.421875 -103.15625 134.515625 -97.96875 Z M 134.515625 -97.96875 "/></g></g></g><g fill="#8093e8" fill-opacity="1"><g transform="translate(153.361974, 343.098762)"><g><path d="M 219.59375 14.65625 C 219.1875 17.007812 218.28125 19.394531 216.875 21.8125 C 215.21875 24.4375 213.257812 26.644531 211 28.4375 C 208.46875 30.414062 205.550781 31.84375 202.25 32.71875 C 198.945312 33.59375 195.296875 33.679688 191.296875 32.984375 L 50.875 8.5 C 42.875 7.101562 37.328125 3.472656 34.234375 -2.390625 C 31.085938 -8.035156 29.945312 -13.328125 30.8125 -18.265625 C 31.21875 -20.609375 32.238281 -22.972656 33.875 -25.359375 C 35.257812 -27.785156 37.21875 -29.992188 39.75 -31.984375 C 42 -33.753906 44.773438 -35.082031 48.078125 -35.96875 C 51.148438 -36.882812 54.6875 -36.992188 58.6875 -36.296875 L 199.109375 -11.8125 C 203.109375 -11.113281 206.515625 -9.796875 209.328125 -7.859375 C 212.140625 -5.898438 214.414062 -3.6875 216.15625 -1.21875 C 217.644531 1.46875 218.75 4.207031 219.46875 7 C 219.957031 9.757812 220 12.3125 219.59375 14.65625 Z M 219.59375 14.65625 "/></g></g></g></g></g></g></g></g></g></g></svg>